<svg width="886" height="299" viewBox="0 0 886 299" fill="none" xmlns="http://www.w3.org/2000/svg">
<path d="M130.722 18.8C202.917 18.8 261.444 77.326 261.444 149.522C261.444 221.717 202.917 280.244 130.722 280.244C58.5261 280.244 0 221.717 0 149.522C0.000214411 77.3262 58.5262 18.8002 130.722 18.8ZM131.062 47.3215C74.43 47.3215 28.5206 93.23 28.5205 149.862C28.5205 206.493 74.43 252.403 131.062 252.403C187.693 252.402 233.602 206.493 233.602 149.862C233.602 93.2302 187.693 47.3217 131.062 47.3215Z" fill="#FFFEFE"/>
<path d="M132.568 131.877C110.429 151.323 114.734 177.991 119.653 188.895C132.199 144.001 164.648 124.775 179.304 120.774C137.241 141.66 126.725 180.492 126.725 197.297C129.677 189.375 140.869 183.993 146.096 182.293C163.201 176.728 176.947 168.288 181.457 163.087C198.183 144.361 202.365 113.872 202.365 100.968C200.889 102.168 179.407 108.871 168.85 112.071C149.171 119.034 136.462 128.176 132.568 131.877Z" fill="#FFFEFE"/>
<path d="M73.839 135.779C82.2585 139.226 99.1753 146.942 111.966 168.788C110.941 164.487 110.183 154.204 115.349 147.482C108.852 139.661 100.787 132.942 83.6784 129.777C68.8165 127.027 59.695 124.675 59.0801 121.674C59.0801 129.208 60.3923 146.862 63.9483 154.689C69.6217 167.175 74.9199 175.252 92.5952 183.193C109.749 190.899 114.365 196.017 115.197 198.755C112.701 184.094 103.838 154.384 73.839 135.779Z" fill="#FFFEFE"/>
<path d="M348.539 230.07C341.179 230.07 334.279 227.923 327.839 223.63C321.399 219.183 315.726 213.127 310.819 205.46C306.066 197.793 302.309 188.823 299.549 178.55C296.943 168.123 295.639 156.93 295.639 144.97C295.639 133.01 296.943 121.893 299.549 111.62C302.309 101.347 306.066 92.3767 310.819 84.71C315.726 76.89 321.399 70.8333 327.839 66.54C334.279 62.2467 341.179 60.1 348.539 60.1C355.899 60.1 362.723 62.2467 369.009 66.54C375.449 70.8333 381.123 76.89 386.029 84.71C390.936 92.3767 394.693 101.347 397.299 111.62C400.059 121.893 401.439 133.01 401.439 144.97C401.439 156.93 400.059 168.123 397.299 178.55C394.693 188.823 390.936 197.793 386.029 205.46C381.123 213.127 375.449 219.183 369.009 223.63C362.723 227.923 355.899 230.07 348.539 230.07ZM348.539 223.86C359.426 223.86 367.936 217.343 374.069 204.31C380.203 191.277 383.269 171.497 383.269 144.97C383.269 118.443 380.203 98.74 374.069 85.86C367.936 72.8267 359.426 66.31 348.539 66.31C337.806 66.31 329.296 72.8267 323.009 85.86C316.876 98.74 313.809 118.443 313.809 144.97C313.809 171.497 316.876 191.277 323.009 204.31C329.296 217.343 337.806 223.86 348.539 223.86ZM440.778 230.07C437.252 230.07 433.495 229.61 429.508 228.69C425.522 227.923 422.302 226.927 419.848 225.7C418.468 224.933 417.778 223.63 417.778 221.79L417.088 196.03C417.088 193.423 418.085 192.12 420.078 192.12C421.765 192.12 422.915 193.347 423.528 195.8C426.135 206.687 429.278 214.123 432.958 218.11C436.792 222.097 441.392 224.09 446.758 224.09C451.205 224.09 454.885 222.403 457.798 219.03C460.712 215.503 462.168 210.673 462.168 204.54C462.168 198.407 460.482 192.963 457.108 188.21C453.735 183.457 448.062 178.243 440.088 172.57C432.115 167.203 426.288 161.837 422.608 156.47C418.928 150.95 417.088 144.97 417.088 138.53C417.088 129.79 420.155 122.737 426.288 117.37C432.422 112.003 440.548 109.32 450.668 109.32C453.735 109.32 456.725 109.703 459.638 110.47C462.552 111.083 465.158 112.157 467.458 113.69C468.838 114.61 469.528 115.837 469.528 117.37L469.988 142.67C469.988 144.97 469.068 146.12 467.228 146.12C466.155 146.12 465.388 145.813 464.928 145.2C464.468 144.433 464.085 143.513 463.778 142.44C460.712 132.473 457.645 125.573 454.578 121.74C451.512 117.753 447.755 115.76 443.308 115.76C439.322 115.76 436.025 117.14 433.418 119.9C430.812 122.66 429.508 126.11 429.508 130.25C429.508 135.617 431.118 140.293 434.338 144.28C437.558 148.267 443.385 153.173 451.818 159C459.485 164.52 465.235 170.5 469.068 176.94C473.055 183.227 475.048 190.127 475.048 197.64C475.048 207.453 471.905 215.35 465.618 221.33C459.332 227.157 451.052 230.07 440.778 230.07ZM522.8 230.07C516.054 230.07 509.92 227.847 504.4 223.4C499.034 218.8 494.74 212.283 491.52 203.85C488.3 195.417 486.69 185.373 486.69 173.72C486.69 160.687 488.607 149.34 492.44 139.68C496.427 130.02 501.794 122.583 508.54 117.37C515.287 112.003 522.8 109.32 531.08 109.32C538.134 109.32 543.654 110.7 547.64 113.46C549.174 114.533 549.94 116.22 549.94 118.52L550.4 146.58C550.4 148.88 549.48 150.03 547.64 150.03C545.954 150.03 544.88 149.033 544.42 147.04C542.274 138.607 540.204 132.09 538.21 127.49C536.217 122.89 534.147 119.747 532 118.06C529.854 116.22 527.477 115.3 524.87 115.3C521.804 115.3 518.584 117.063 515.21 120.59C511.99 124.117 509.23 129.867 506.93 137.84C504.784 145.66 503.71 156.01 503.71 168.89C503.71 185.297 505.78 197.64 509.92 205.92C514.214 214.2 519.734 218.34 526.48 218.34C531.847 218.34 536.294 216.117 539.82 211.67C543.5 207.223 546.644 199.173 549.25 187.52C549.71 185.833 550.63 184.99 552.01 184.99C553.85 184.99 554.54 186.523 554.08 189.59C552.394 200.323 550.017 208.68 546.95 214.66C544.037 220.487 540.51 224.55 536.37 226.85C532.384 228.997 527.86 230.07 522.8 230.07ZM586.94 230.07C580.5 230.07 575.21 228.077 571.07 224.09C566.93 219.95 564.86 214.507 564.86 207.76C564.86 201.167 566.93 194.957 571.07 189.13C575.21 183.15 580.883 177.783 588.09 173.03C595.297 168.277 603.5 164.443 612.7 161.53C614.693 160.917 615.69 159.613 615.69 157.62V136.69C615.69 129.33 614.54 124.117 612.24 121.05C609.94 117.83 606.797 116.22 602.81 116.22C598.977 116.22 595.45 117.983 592.23 121.51C589.163 124.883 586.94 130.633 585.56 138.76C584.793 143.667 583.107 147.27 580.5 149.57C578.047 151.717 575.517 152.79 572.91 152.79C568.617 152.79 566.47 150.643 566.47 146.35C566.47 141.903 567.697 137.533 570.15 133.24C572.757 128.793 576.13 124.807 580.27 121.28C584.41 117.6 588.933 114.687 593.84 112.54C598.747 110.393 603.653 109.32 608.56 109.32C623.74 109.32 631.33 118.137 631.33 135.77V206.15C631.33 212.59 632.94 215.81 636.16 215.81C638.153 215.81 639.993 214.507 641.68 211.9C643.367 209.14 644.21 204.54 644.21 198.1C644.21 195.647 645.207 194.42 647.2 194.42C649.04 194.42 649.96 195.723 649.96 198.33C649.96 209.523 647.967 217.65 643.98 222.71C640.147 227.617 635.777 230.07 630.87 230.07C627.19 230.07 624.277 228.613 622.13 225.7C619.983 222.633 618.527 219.03 617.76 214.89C617.607 213.357 616.917 212.59 615.69 212.59C614.617 212.437 613.543 213.127 612.47 214.66C608.79 219.72 605.033 223.553 601.2 226.16C597.367 228.767 592.613 230.07 586.94 230.07ZM593.15 219.49C597.137 219.49 600.817 218.11 604.19 215.35C607.563 212.437 610.323 208.603 612.47 203.85C614.617 199.097 615.69 193.73 615.69 187.75V170.96C615.69 168.047 614.08 167.203 610.86 168.43C601.507 171.803 594.223 176.48 589.01 182.46C583.95 188.287 581.42 195.34 581.42 203.62C581.42 214.2 585.33 219.49 593.15 219.49ZM686.625 125.42C692.912 114.687 700.502 109.32 709.395 109.32C714.455 109.32 718.212 110.853 720.665 113.92C723.118 116.833 724.345 120.13 724.345 123.81C724.345 126.723 723.578 129.1 722.045 130.94C720.665 132.78 718.442 133.7 715.375 133.7C712.922 133.7 711.082 133.163 709.855 132.09C708.782 130.863 707.862 129.483 707.095 127.95C706.482 126.417 705.715 125.113 704.795 124.04C703.875 122.813 702.342 122.2 700.195 122.2C697.435 122.2 694.828 123.887 692.375 127.26C689.922 130.48 687.852 134.85 686.165 140.37C684.632 145.89 683.865 152.177 683.865 159.23V212.59C683.865 215.81 684.325 218.11 685.245 219.49C686.318 220.87 688.465 221.713 691.685 222.02L697.895 222.71C699.582 223.017 700.425 223.86 700.425 225.24C700.425 227.08 699.275 228 696.975 228H658.105C655.805 228 654.655 227.157 654.655 225.47C654.655 224.09 655.652 223.17 657.645 222.71L660.405 222.25C663.625 221.637 665.695 220.717 666.615 219.49C667.688 218.11 668.225 215.81 668.225 212.59V135.31C668.225 132.55 667.765 130.71 666.845 129.79C666.078 128.717 664.622 128.027 662.475 127.72L657.645 127.03C655.652 126.877 654.655 126.033 654.655 124.5C654.655 123.273 655.882 122.43 658.335 121.97C663.088 121.203 666.692 119.977 669.145 118.29C671.752 116.603 674.435 114.533 677.195 112.08C678.575 110.7 679.725 110.01 680.645 110.01C682.025 110.01 682.715 110.93 682.715 112.77V125.19C682.715 126.263 683.175 126.953 684.095 127.26C685.015 127.413 685.858 126.8 686.625 125.42ZM723.738 228C721.438 228 720.288 227.233 720.288 225.7C720.288 224.167 721.361 223.17 723.508 222.71L726.958 222.02C730.024 221.407 732.324 219.95 733.858 217.65C735.391 215.197 736.694 211.823 737.768 207.53L773.418 63.78C773.724 62.2467 774.184 61.25 774.798 60.79C775.564 60.33 776.254 60.1 776.868 60.1C777.634 60.1 778.324 60.33 778.938 60.79C779.704 61.25 780.241 62.2467 780.548 63.78L816.888 209.6C817.961 213.893 819.188 216.883 820.568 218.57C821.948 220.257 824.094 221.407 827.008 222.02L830.458 222.71C832.604 223.17 833.678 224.167 833.678 225.7C833.678 227.233 832.528 228 830.228 228H790.898C788.751 228 787.678 227.157 787.678 225.47C787.678 223.783 788.981 222.863 791.588 222.71L795.958 222.25C798.564 221.943 800.174 221.1 800.788 219.72C801.554 218.34 801.554 215.963 800.788 212.59L792.048 176.94C791.128 172.953 788.598 170.96 784.458 170.96H760.308C756.321 170.96 753.791 172.953 752.718 176.94L744.898 207.76C742.598 216.5 744.898 221.33 751.798 222.25L755.248 222.71C757.854 223.17 759.158 224.09 759.158 225.47C759.158 227.157 758.084 228 755.938 228H723.738ZM759.618 164.06H784.918C787.371 164.06 788.368 162.757 787.908 160.15L773.188 98.51H772.038L756.628 160.15C756.168 162.757 757.164 164.06 759.618 164.06ZM835.119 228C832.819 228 831.669 227.157 831.669 225.47C831.669 224.09 832.665 223.17 834.659 222.71L839.949 221.79C843.169 221.177 845.239 220.333 846.159 219.26C847.232 218.187 847.769 216.04 847.769 212.82V77.58C847.769 74.36 847.232 72.2133 846.159 71.14C845.239 70.0667 843.169 69.2233 839.949 68.61L834.659 67.69C832.665 67.23 831.669 66.31 831.669 64.93C831.669 63.2433 832.819 62.4 835.119 62.4H876.749C879.049 62.4 880.199 63.2433 880.199 64.93C880.199 66.31 879.202 67.23 877.209 67.69L871.919 68.61C868.699 69.2233 866.552 70.0667 865.479 71.14C864.559 72.2133 864.099 74.36 864.099 77.58V212.82C864.099 216.04 864.559 218.187 865.479 219.26C866.552 220.333 868.699 221.177 871.919 221.79L877.209 222.71C879.202 223.17 880.199 224.09 880.199 225.47C880.199 227.157 879.049 228 876.749 228H835.119Z" fill="#FFFEFE"/>
<path d="M458.601 272.416C456.157 272.416 454.25 271.861 452.881 270.752C451.529 269.643 450.844 268.022 450.827 265.89H453.609C453.661 268.663 455.342 270.05 458.653 270.05C460.022 270.05 461.071 269.79 461.799 269.27C462.544 268.733 462.917 267.961 462.917 266.956C462.917 266.141 462.613 265.517 462.007 265.084C461.4 264.633 460.308 264.235 458.731 263.888L457.145 263.55C455.238 263.169 453.799 262.545 452.829 261.678C451.858 260.811 451.373 259.615 451.373 258.09C451.373 256.565 451.962 255.351 453.141 254.45C454.319 253.531 455.914 253.072 457.925 253.072C460.351 253.072 462.171 253.592 463.385 254.632C464.615 255.672 465.248 257.102 465.283 258.922H462.527C462.44 257.726 462.041 256.851 461.331 256.296C460.637 255.724 459.511 255.438 457.951 255.438C456.737 255.438 455.81 255.663 455.169 256.114C454.527 256.565 454.207 257.206 454.207 258.038C454.207 258.887 454.493 259.529 455.065 259.962C455.637 260.43 456.694 260.829 458.237 261.158L459.849 261.496C461.963 261.947 463.48 262.597 464.399 263.446C465.335 264.295 465.803 265.439 465.803 266.878C465.803 268.594 465.161 269.946 463.879 270.934C462.613 271.922 460.854 272.416 458.601 272.416ZM482.519 258.272C483.975 258.272 485.111 258.705 485.925 259.572C486.74 260.421 487.147 261.565 487.147 263.004V272H484.521V263.342C484.521 261.487 483.663 260.56 481.947 260.56C481.029 260.56 480.275 260.915 479.685 261.626C479.096 262.319 478.801 263.325 478.801 264.642V272H476.201V263.342C476.201 261.487 475.335 260.56 473.601 260.56C472.683 260.56 471.929 260.915 471.339 261.626C470.75 262.337 470.455 263.342 470.455 264.642V272H467.855V258.584H470.351V260.586C471.27 259.043 472.561 258.272 474.225 258.272C476.253 258.272 477.631 259.113 478.359 260.794C479.313 259.113 480.699 258.272 482.519 258.272ZM501.591 269.998H502.319V272C501.937 272.052 501.513 272.078 501.045 272.078C500.213 272.078 499.589 271.931 499.173 271.636C498.774 271.324 498.531 270.839 498.445 270.18C497.543 271.601 496.087 272.312 494.077 272.312C492.603 272.312 491.433 271.965 490.567 271.272C489.717 270.561 489.293 269.582 489.293 268.334C489.293 265.907 490.974 264.521 494.337 264.174L496.313 263.966C497.006 263.879 497.509 263.706 497.821 263.446C498.15 263.169 498.315 262.779 498.315 262.276C498.315 261.6 498.098 261.115 497.665 260.82C497.249 260.508 496.547 260.352 495.559 260.352C494.484 260.352 493.713 260.534 493.245 260.898C492.777 261.245 492.508 261.869 492.439 262.77H489.865C490.055 259.771 491.953 258.272 495.559 258.272C499.095 258.272 500.863 259.589 500.863 262.224V269.322C500.863 269.773 501.105 269.998 501.591 269.998ZM494.467 270.284C495.576 270.284 496.495 269.972 497.223 269.348C497.951 268.724 498.315 267.84 498.315 266.696V265.292C497.985 265.569 497.431 265.751 496.651 265.838L494.779 266.046C493.773 266.167 493.054 266.41 492.621 266.774C492.187 267.121 491.971 267.615 491.971 268.256C491.971 268.897 492.179 269.4 492.595 269.764C493.028 270.111 493.652 270.284 494.467 270.284ZM510.719 258.376C511.1 258.376 511.352 258.385 511.473 258.402V260.872H510.823C509.488 260.872 508.457 261.201 507.729 261.86C507.001 262.519 506.637 263.472 506.637 264.72V272H504.037V258.584H506.533V260.976C507.382 259.243 508.778 258.376 510.719 258.376ZM519.852 258.584V260.716H517.148V268.776C517.148 269.175 517.261 269.469 517.486 269.66C517.729 269.833 518.128 269.92 518.682 269.92H519.852V272C519.28 272.052 518.752 272.078 518.266 272.078C517.001 272.078 516.065 271.835 515.458 271.35C514.852 270.865 514.548 270.085 514.548 269.01V260.716H512.39V258.584H514.548V254.736H517.148V258.584H519.852ZM545.419 261.886L547.681 253.488H550.567L545.367 272H542.247L539.907 263.342C539.457 261.661 538.919 259.52 538.295 256.92C537.671 259.52 537.134 261.661 536.683 263.342L534.343 272H531.223L526.023 253.488H528.909L531.171 261.886C531.951 264.919 532.523 267.199 532.887 268.724C533.893 264.599 534.456 262.302 534.577 261.834L536.813 253.488H539.777L542.013 261.834C542.135 262.302 542.698 264.599 543.703 268.724C544.067 267.199 544.639 264.919 545.419 261.886ZM562.3 269.998H563.028V272C562.646 272.052 562.222 272.078 561.754 272.078C560.922 272.078 560.298 271.931 559.882 271.636C559.483 271.324 559.24 270.839 559.154 270.18C558.252 271.601 556.796 272.312 554.786 272.312C553.312 272.312 552.142 271.965 551.276 271.272C550.426 270.561 550.002 269.582 550.002 268.334C550.002 265.907 551.683 264.521 555.046 264.174L557.022 263.966C557.715 263.879 558.218 263.706 558.53 263.446C558.859 263.169 559.024 262.779 559.024 262.276C559.024 261.6 558.807 261.115 558.374 260.82C557.958 260.508 557.256 260.352 556.268 260.352C555.193 260.352 554.422 260.534 553.954 260.898C553.486 261.245 553.217 261.869 553.148 262.77H550.574C550.764 259.771 552.662 258.272 556.268 258.272C559.804 258.272 561.572 259.589 561.572 262.224V269.322C561.572 269.773 561.814 269.998 562.3 269.998ZM555.176 270.284C556.285 270.284 557.204 269.972 557.932 269.348C558.66 268.724 559.024 267.84 559.024 266.696V265.292C558.694 265.569 558.14 265.751 557.36 265.838L555.488 266.046C554.482 266.167 553.763 266.41 553.33 266.774C552.896 267.121 552.68 267.615 552.68 268.256C552.68 268.897 552.888 269.4 553.304 269.764C553.737 270.111 554.361 270.284 555.176 270.284ZM569.763 272.338C566.036 272.338 564.077 270.804 563.887 267.736H566.487C566.591 268.672 566.894 269.331 567.397 269.712C567.899 270.093 568.697 270.284 569.789 270.284C571.765 270.284 572.753 269.66 572.753 268.412C572.753 267.875 572.545 267.459 572.129 267.164C571.713 266.869 570.967 266.627 569.893 266.436L568.515 266.176C565.672 265.656 564.251 264.321 564.251 262.172C564.251 260.976 564.71 260.031 565.629 259.338C566.547 258.627 567.813 258.272 569.425 258.272C573.117 258.272 575.006 259.771 575.093 262.77H572.571C572.519 261.869 572.241 261.236 571.739 260.872C571.236 260.491 570.465 260.3 569.425 260.3C568.593 260.3 567.951 260.456 567.501 260.768C567.05 261.08 566.825 261.522 566.825 262.094C566.825 262.614 567.024 263.021 567.423 263.316C567.821 263.593 568.454 263.819 569.321 263.992L570.725 264.226C572.371 264.538 573.559 265.006 574.287 265.63C575.015 266.254 575.379 267.121 575.379 268.23C575.379 269.53 574.885 270.544 573.897 271.272C572.909 271.983 571.531 272.338 569.763 272.338ZM583.456 258.584V260.716H580.752V268.776C580.752 269.175 580.865 269.469 581.09 269.66C581.333 269.833 581.731 269.92 582.286 269.92H583.456V272C582.884 272.052 582.355 272.078 581.87 272.078C580.605 272.078 579.669 271.835 579.062 271.35C578.455 270.865 578.152 270.085 578.152 269.01V260.716H575.994V258.584H578.152V254.736H580.752V258.584H583.456ZM597.403 265.396V266.15H587.289C587.41 267.467 587.8 268.464 588.459 269.14C589.118 269.799 590.01 270.128 591.137 270.128C592.836 270.128 593.945 269.383 594.465 267.892H597.091C596.727 269.261 596.016 270.345 594.959 271.142C593.919 271.922 592.628 272.312 591.085 272.312C589.161 272.312 587.61 271.671 586.431 270.388C585.252 269.105 584.663 267.407 584.663 265.292C584.663 263.177 585.252 261.479 586.431 260.196C587.61 258.913 589.144 258.272 591.033 258.272C593.009 258.272 594.569 258.939 595.713 260.274C596.84 261.609 597.403 263.316 597.403 265.396ZM591.033 260.456C590.01 260.456 589.17 260.768 588.511 261.392C587.87 262.016 587.471 262.917 587.315 264.096H594.725C594.604 263.004 594.214 262.129 593.555 261.47C592.914 260.794 592.073 260.456 591.033 260.456ZM612.011 272.416C609.567 272.416 607.66 271.861 606.291 270.752C604.939 269.643 604.254 268.022 604.237 265.89H607.019C607.071 268.663 608.752 270.05 612.063 270.05C613.432 270.05 614.481 269.79 615.209 269.27C615.954 268.733 616.327 267.961 616.327 266.956C616.327 266.141 616.023 265.517 615.417 265.084C614.81 264.633 613.718 264.235 612.141 263.888L610.555 263.55C608.648 263.169 607.209 262.545 606.239 261.678C605.268 260.811 604.783 259.615 604.783 258.09C604.783 256.565 605.372 255.351 606.551 254.45C607.729 253.531 609.324 253.072 611.335 253.072C613.761 253.072 615.581 253.592 616.795 254.632C618.025 255.672 618.658 257.102 618.693 258.922H615.937C615.85 257.726 615.451 256.851 614.741 256.296C614.047 255.724 612.921 255.438 611.361 255.438C610.147 255.438 609.22 255.663 608.579 256.114C607.937 256.565 607.617 257.206 607.617 258.038C607.617 258.887 607.903 259.529 608.475 259.962C609.047 260.43 610.104 260.829 611.647 261.158L613.259 261.496C615.373 261.947 616.89 262.597 617.809 263.446C618.745 264.295 619.213 265.439 619.213 266.878C619.213 268.594 618.571 269.946 617.289 270.934C616.023 271.922 614.264 272.416 612.011 272.416ZM632.514 270.388C631.283 271.671 629.68 272.312 627.704 272.312C625.728 272.312 624.124 271.671 622.894 270.388C621.663 269.105 621.048 267.407 621.048 265.292C621.048 263.16 621.663 261.453 622.894 260.17C624.107 258.905 625.71 258.272 627.704 258.272C629.697 258.272 631.3 258.905 632.514 260.17C633.727 261.435 634.334 263.143 634.334 265.292C634.334 267.424 633.727 269.123 632.514 270.388ZM624.818 268.802C625.528 269.651 626.49 270.076 627.704 270.076C628.917 270.076 629.87 269.651 630.564 268.802C631.274 267.953 631.63 266.783 631.63 265.292C631.63 263.801 631.274 262.631 630.564 261.782C629.87 260.933 628.917 260.508 627.704 260.508C626.49 260.508 625.528 260.933 624.818 261.782C624.107 262.631 623.752 263.801 623.752 265.292C623.752 266.783 624.107 267.953 624.818 268.802ZM639.227 272H636.627V253.488H639.227V272ZM650.951 266.15V258.584H653.551V272H651.055V269.998C650.032 271.541 648.628 272.312 646.843 272.312C645.369 272.312 644.217 271.896 643.385 271.064C642.553 270.232 642.137 269.071 642.137 267.58V258.584H644.737V267.216C644.737 269.088 645.681 270.024 647.571 270.024C648.524 270.024 649.321 269.686 649.963 269.01C650.621 268.317 650.951 267.363 650.951 266.15ZM662.852 258.584V260.716H660.148V268.776C660.148 269.175 660.261 269.469 660.486 269.66C660.729 269.833 661.128 269.92 661.682 269.92H662.852V272C662.28 272.052 661.752 272.078 661.266 272.078C660.001 272.078 659.065 271.835 658.458 271.35C657.852 270.865 657.548 270.085 657.548 269.01V260.716H655.39V258.584H657.548V254.736H660.148V258.584H662.852ZM667.563 256.686H664.911V253.904H667.563V256.686ZM667.537 272H664.937V258.584H667.537V272ZM681.289 270.388C680.059 271.671 678.455 272.312 676.479 272.312C674.503 272.312 672.9 271.671 671.669 270.388C670.439 269.105 669.823 267.407 669.823 265.292C669.823 263.16 670.439 261.453 671.669 260.17C672.883 258.905 674.486 258.272 676.479 258.272C678.473 258.272 680.076 258.905 681.289 260.17C682.503 261.435 683.109 263.143 683.109 265.292C683.109 267.424 682.503 269.123 681.289 270.388ZM673.593 268.802C674.304 269.651 675.266 270.076 676.479 270.076C677.693 270.076 678.646 269.651 679.339 268.802C680.05 267.953 680.405 266.783 680.405 265.292C680.405 263.801 680.05 262.631 679.339 261.782C678.646 260.933 677.693 260.508 676.479 260.508C675.266 260.508 674.304 260.933 673.593 261.782C672.883 262.631 672.527 263.801 672.527 265.292C672.527 266.783 672.883 267.953 673.593 268.802ZM692.11 258.272C693.584 258.272 694.736 258.688 695.568 259.52C696.4 260.335 696.816 261.496 696.816 263.004V272H694.216V263.368C694.216 261.496 693.272 260.56 691.382 260.56C690.516 260.56 689.736 260.889 689.042 261.548C688.349 262.224 688.002 263.186 688.002 264.434V272H685.402V258.584H687.898V260.586C688.921 259.043 690.325 258.272 692.11 258.272ZM704.714 272.338C700.987 272.338 699.029 270.804 698.838 267.736H701.438C701.542 268.672 701.845 269.331 702.348 269.712C702.851 270.093 703.648 270.284 704.74 270.284C706.716 270.284 707.704 269.66 707.704 268.412C707.704 267.875 707.496 267.459 707.08 267.164C706.664 266.869 705.919 266.627 704.844 266.436L703.466 266.176C700.623 265.656 699.202 264.321 699.202 262.172C699.202 260.976 699.661 260.031 700.58 259.338C701.499 258.627 702.764 258.272 704.376 258.272C708.068 258.272 709.957 259.771 710.044 262.77H707.522C707.47 261.869 707.193 261.236 706.69 260.872C706.187 260.491 705.416 260.3 704.376 260.3C703.544 260.3 702.903 260.456 702.452 260.768C702.001 261.08 701.776 261.522 701.776 262.094C701.776 262.614 701.975 263.021 702.374 263.316C702.773 263.593 703.405 263.819 704.272 263.992L705.676 264.226C707.323 264.538 708.51 265.006 709.238 265.63C709.966 266.254 710.33 267.121 710.33 268.23C710.33 269.53 709.836 270.544 708.848 271.272C707.86 271.983 706.482 272.338 704.714 272.338ZM717.677 253.488H725.555C727.566 253.488 729.126 254.017 730.235 255.074C731.345 256.114 731.899 257.535 731.899 259.338C731.899 261.123 731.345 262.545 730.235 263.602C729.126 264.642 727.566 265.162 725.555 265.162H720.459V272H717.677V253.488ZM720.459 262.718H725.503C726.665 262.718 727.549 262.432 728.155 261.86C728.762 261.271 729.065 260.43 729.065 259.338C729.065 258.246 728.762 257.405 728.155 256.816C727.549 256.227 726.665 255.932 725.503 255.932H720.459V262.718ZM744.055 270.388C742.824 271.671 741.221 272.312 739.245 272.312C737.269 272.312 735.666 271.671 734.435 270.388C733.204 269.105 732.589 267.407 732.589 265.292C732.589 263.16 733.204 261.453 734.435 260.17C735.648 258.905 737.252 258.272 739.245 258.272C741.238 258.272 742.842 258.905 744.055 260.17C745.268 261.435 745.875 263.143 745.875 265.292C745.875 267.424 745.268 269.123 744.055 270.388ZM736.359 268.802C737.07 269.651 738.032 270.076 739.245 270.076C740.458 270.076 741.412 269.651 742.105 268.802C742.816 267.953 743.171 266.783 743.171 265.292C743.171 263.801 742.816 262.631 742.105 261.782C741.412 260.933 740.458 260.508 739.245 260.508C738.032 260.508 737.07 260.933 736.359 261.782C735.648 262.631 735.293 263.801 735.293 265.292C735.293 266.783 735.648 267.953 736.359 268.802ZM762.122 264.174L763.864 258.584H766.646L762.2 272H759.47L757.624 266.098C757.156 264.607 756.731 263.169 756.35 261.782C755.778 263.81 755.362 265.249 755.102 266.098L753.282 272H750.526L746.08 258.584H748.888L750.604 264.174C751.072 265.682 751.54 267.277 752.008 268.958C752.32 267.71 752.77 266.115 753.36 264.174L755.076 258.584H757.676L759.366 264.174C760.076 266.583 760.536 268.169 760.744 268.932C760.952 268.169 761.411 266.583 762.122 264.174ZM779.581 265.396V266.15H769.467C769.588 267.467 769.978 268.464 770.637 269.14C771.295 269.799 772.188 270.128 773.315 270.128C775.013 270.128 776.123 269.383 776.643 267.892H779.269C778.905 269.261 778.194 270.345 777.137 271.142C776.097 271.922 774.805 272.312 773.263 272.312C771.339 272.312 769.787 271.671 768.609 270.388C767.43 269.105 766.841 267.407 766.841 265.292C766.841 263.177 767.43 261.479 768.609 260.196C769.787 258.913 771.321 258.272 773.211 258.272C775.187 258.272 776.747 258.939 777.891 260.274C779.017 261.609 779.581 263.316 779.581 265.396ZM773.211 260.456C772.188 260.456 771.347 260.768 770.689 261.392C770.047 262.016 769.649 262.917 769.493 264.096H776.903C776.781 263.004 776.391 262.129 775.733 261.47C775.091 260.794 774.251 260.456 773.211 260.456ZM788.569 258.376C788.95 258.376 789.201 258.385 789.323 258.402V260.872H788.673C787.338 260.872 786.307 261.201 785.579 261.86C784.851 262.519 784.487 263.472 784.487 264.72V272H781.887V258.584H784.383V260.976C785.232 259.243 786.627 258.376 788.569 258.376ZM802.61 265.396V266.15H792.496C792.617 267.467 793.007 268.464 793.666 269.14C794.325 269.799 795.217 270.128 796.344 270.128C798.043 270.128 799.152 269.383 799.672 267.892H802.298C801.934 269.261 801.223 270.345 800.166 271.142C799.126 271.922 797.835 272.312 796.292 272.312C794.368 272.312 792.817 271.671 791.638 270.388C790.459 269.105 789.87 267.407 789.87 265.292C789.87 263.177 790.459 261.479 791.638 260.196C792.817 258.913 794.351 258.272 796.24 258.272C798.216 258.272 799.776 258.939 800.92 260.274C802.047 261.609 802.61 263.316 802.61 265.396ZM796.24 260.456C795.217 260.456 794.377 260.768 793.718 261.392C793.077 262.016 792.678 262.917 792.522 264.096H799.932C799.811 263.004 799.421 262.129 798.762 261.47C798.121 260.794 797.28 260.456 796.24 260.456ZM814.77 260.404V253.488H817.37V272H814.874V270.024C813.869 271.549 812.387 272.312 810.428 272.312C808.556 272.312 807.065 271.679 805.956 270.414C804.847 269.149 804.292 267.441 804.292 265.292C804.292 263.143 804.847 261.435 805.956 260.17C807.065 258.905 808.556 258.272 810.428 258.272C812.317 258.272 813.765 258.983 814.77 260.404ZM806.996 265.396C806.996 266.887 807.351 268.039 808.062 268.854C808.773 269.669 809.726 270.076 810.922 270.076C812.153 270.076 813.115 269.651 813.808 268.802C814.501 267.987 814.848 266.817 814.848 265.292C814.848 263.784 814.501 262.605 813.808 261.756C813.115 260.924 812.153 260.508 810.922 260.508C809.726 260.508 808.773 260.941 808.062 261.808C807.351 262.675 806.996 263.871 806.996 265.396ZM832.527 258.272C834.399 258.272 835.889 258.905 836.999 260.17C838.108 261.435 838.663 263.143 838.663 265.292C838.663 267.424 838.108 269.123 836.999 270.388C835.872 271.671 834.381 272.312 832.527 272.312C830.551 272.312 829.06 271.532 828.055 269.972V272H825.559V253.488H828.159V260.456C829.164 259 830.62 258.272 832.527 258.272ZM829.173 268.802C829.866 269.651 830.819 270.076 832.033 270.076C833.246 270.076 834.208 269.643 834.919 268.776C835.612 267.927 835.959 266.731 835.959 265.188C835.959 263.697 835.612 262.545 834.919 261.73C834.225 260.915 833.263 260.508 832.033 260.508C830.837 260.508 829.883 260.924 829.173 261.756C828.462 262.623 828.107 263.801 828.107 265.292C828.107 266.783 828.462 267.953 829.173 268.802ZM847.281 263.186L848.841 258.584H851.597L846.137 273.69C845.686 274.973 845.088 275.874 844.343 276.394C843.598 276.914 842.54 277.174 841.171 277.174C840.703 277.174 840.252 277.148 839.819 277.096V274.99H841.119C842.28 274.99 843.06 274.453 843.459 273.378C843.494 273.274 843.546 273.109 843.615 272.884C843.702 272.659 843.771 272.485 843.823 272.364L838.857 258.584H841.691L843.251 263.186C844.083 265.751 844.75 267.892 845.253 269.608C845.929 267.407 846.605 265.266 847.281 263.186ZM875.002 272H872.064L870.244 267.19H861.924L860.13 272H857.244L864.472 253.488H867.67L875.002 272ZM863.198 263.758L862.808 264.772H869.334L868.944 263.758C868.025 261.47 867.063 258.939 866.058 256.166C864.862 259.355 863.909 261.886 863.198 263.758ZM879.278 272H876.496V253.488H879.278V272Z" fill="white"/>
</svg>
